<?xml version='1.0' encoding='utf-8'?>
<svg xmlns="http://www.w3.org/2000/svg" width="2813.424" height="3000" viewBox="0 0 744.385 793.75"><path d="m315.216 0-69.47 158.302 126.447 219.013L498.641 158.3 429.171 0l-56.978 56.977zM56.98 149.094l20.855 77.832L.002 247.781l102.356 139.313h252.897L228.807 168.083zm630.428.001-171.83 18.988-97.693 169.21-28.752 49.801h252.897l102.356-139.31-77.833-20.856zm-45.38 257.557-252.895.002 126.447 219.015 171.828 18.987-20.855-77.832 77.833-20.855zm-539.667.002L0 545.969l77.832 20.855-20.855 77.832 171.83-18.989 54.543-94.472 71.905-124.541zm269.833 9.779-71.903 124.54-54.544 94.473 69.468 158.304 56.978-56.978 56.977 56.978 69.472-158.304z" fill="#ff8080"/><path d="m331.386 112.637-48.37 110.22 89.176 154.46 89.177-154.461-48.368-110.219-40.806 40.806zM146.44 219.415l14.936 55.744-55.744 14.935 71.269 97h178.353l-89.176-154.457zm451.507.002-119.64 13.22-60.424 104.657-28.753 49.8h178.352l71.271-96.998-55.744-14.937zm-30.463 187.236-178.354.002 89.177 154.456 119.64 13.222-14.938-55.742 55.744-14.937zm-390.585.002-71.267 96.997 55.744 14.937-14.938 55.742 119.641-13.22 17.272-29.915 71.903-124.54zm195.293 9.779L300.29 540.975l-17.273 29.917 48.37 110.221 40.806-40.808L413 681.113l48.37-110.22z" fill="#f99"/><path d="m345.833 213.272-29.518 67.261 55.877 96.783 55.876-96.78-29.516-67.264-26.359 26.359zm-119.466 68.973 9.648 36.006-36.006 9.65 43.491 59.194h111.753l-55.876-96.783zm291.65.002-73.01 8.067-27.124 46.98-28.753 49.801h111.755l43.491-59.194-36.006-9.647zM243.499 406.655l-43.49 59.193 36.007 9.65-9.648 36.005 73.012-8.069 55.874-96.779zm145.634 0 55.876 96.782 73.01 8.067-9.648-36.007 36.006-9.647-43.493-59.195zm-16.94 9.779-55.877 96.781 29.518 67.263 26.359-26.36 26.358 26.36 29.518-67.263z" fill="#ffb8b8"/><path d="M278.143 331.377a19.395 19.395 0 0 0-7.1 26.496 19.395 19.395 0 0 0 26.495 7.097 19.395 19.395 0 0 0 7.1-26.493 19.395 19.395 0 0 0-26.495-7.1zm84.352-48.7a19.395 19.395 0 0 0-7.1 26.493 19.395 19.395 0 0 0 26.495 7.1 19.395 19.395 0 0 0 7.1-26.494 19.395 19.395 0 0 0-26.495-7.1zm-84.354 146.102a19.395 19.395 0 0 0-7.097 26.494 19.395 19.395 0 0 0 26.493 7.1 19.395 19.395 0 0 0 7.1-26.495 19.395 19.395 0 0 0-26.496-7.099zm168.705-97.402a19.395 19.395 0 0 0-7.097 26.494 19.395 19.395 0 0 0 26.493 7.1 19.395 19.395 0 0 0 7.1-26.495 19.395 19.395 0 0 0-26.496-7.099zm-84.352 146.104a19.395 19.395 0 0 0-7.1 26.493 19.395 19.395 0 0 0 26.495 7.1 19.395 19.395 0 0 0 7.099-26.495 19.395 19.395 0 0 0-26.494-7.098zm84.356-48.702a19.395 19.395 0 0 0-7.1 26.495 19.395 19.395 0 0 0 26.495 7.097 19.395 19.395 0 0 0 7.098-26.492 19.395 19.395 0 0 0-26.493-7.1z" fill="#ffe680"/></svg>